<svg width="114" height="30" viewBox="0 0 114 30" fill="none" xmlns="http://www.w3.org/2000/svg">
<line x1="2.25" y1="-2.25" x2="36.75" y2="-2.25" transform="matrix(-1 0 0 1 114 14)" stroke="white" stroke-width="4.5" stroke-linecap="round" stroke-linejoin="round"/>
<line x1="2.25" y1="-2.25" x2="23.23" y2="-2.25" transform="matrix(-1 -1.26091e-07 -6.06131e-08 1 100.48 29)" stroke="white" stroke-width="4.5" stroke-linecap="round" stroke-linejoin="round"/>
<path d="M15.8555 10.082C15.0117 10.082 14.2383 10.2461 13.5352 10.5742C12.832 10.9023 12.2461 11.3594 11.7773 11.9688H11.7422C11.0508 10.7148 9.89062 10.082 8.26172 10.082C7.60547 10.082 6.97266 10.2344 6.36328 10.5391C5.75391 10.8438 5.21484 11.2656 4.75781 11.8281H4.72266V10.2812H1.58203V22H4.72266V16.1406C4.72266 15.4609 4.82812 14.875 5.05078 14.3828C5.26172 13.8906 5.55469 13.5156 5.92969 13.2695C6.29297 13.0352 6.71484 12.9062 7.19531 12.9062C8.57812 12.9062 9.26953 13.9258 9.26953 15.9531V22.0117H12.4102V16.1406C12.4102 15.4609 12.5156 14.875 12.7266 14.3828C12.9375 13.8906 13.2305 13.5156 13.5938 13.2695C13.9453 13.0352 14.3555 12.9062 14.8008 12.9062C16.1602 12.9062 16.8516 13.9258 16.8516 15.9531V22.0117H19.9922V15.1914C19.9922 13.457 19.6289 12.1797 18.9023 11.3359C18.1758 10.5039 17.168 10.082 15.8555 10.082ZM33.9375 16.0352C33.9375 14.8984 33.6914 13.8789 33.2227 12.9766C32.7422 12.0742 32.0625 11.3711 31.1953 10.8555C30.3164 10.3398 29.3086 10.082 28.1836 10.082C27.3633 10.082 26.5898 10.2344 25.875 10.5273C25.1484 10.832 24.5391 11.2422 24.0234 11.7695C23.5078 12.2969 23.1094 12.9414 22.8164 13.6914C22.5117 14.4414 22.3711 15.2617 22.3711 16.1289C22.3711 17.3242 22.6289 18.3906 23.1562 19.3164C23.6836 20.2539 24.4102 20.9688 25.3242 21.4609C26.2383 21.9531 27.2578 22.1992 28.4062 22.1992C29.5312 22.1992 30.5156 22 31.3828 21.6016C32.2383 21.2031 32.9297 20.6641 33.4688 19.9844L31.4297 18.0859C30.6914 18.9766 29.7539 19.4219 28.6289 19.4102C27.8789 19.4102 27.2344 19.1992 26.707 18.8008C26.1797 18.4023 25.8281 17.8633 25.6406 17.1602H33.8555C33.9023 16.9727 33.9375 16.5977 33.9375 16.0352ZM28.2891 12.8477C28.9453 12.8477 29.4961 13.0352 29.9297 13.3984C30.3516 13.7617 30.6562 14.2656 30.8203 14.8984H25.6523C25.8281 14.2422 26.1445 13.7266 26.6133 13.375C27.082 13.0234 27.6328 12.8477 28.2891 12.8477ZM43.3828 10.082C42.6562 10.082 41.9648 10.2344 41.3086 10.5273C40.6523 10.8203 40.0898 11.2422 39.6211 11.793H39.5859V10.2812H36.4453V22H39.5859V16.1055C39.5859 15.0859 39.8203 14.3008 40.3008 13.7383C40.7812 13.1875 41.4258 12.9062 42.2461 12.9062C43.0078 12.9062 43.5703 13.1289 43.9453 13.5625C44.3086 14.0078 44.4961 14.7578 44.4961 15.8359V22.0117H47.6367V15.0508C47.6367 14.1719 47.5312 13.4102 47.332 12.7539C47.1211 12.1094 46.8281 11.5938 46.4414 11.207C46.0547 10.832 45.6094 10.5508 45.1055 10.3633C44.6016 10.1758 44.0273 10.082 43.3828 10.082ZM58.2773 10.2812V15.9648C58.2773 17.0547 58.0195 17.8984 57.5273 18.4844C57.0234 19.082 56.4023 19.375 55.6758 19.375C54.9258 19.375 54.3867 19.1641 54.0586 18.7422C53.7305 18.3203 53.5781 17.5703 53.5781 16.5156V10.2812H50.4375V17.3359C50.4375 18.2148 50.5312 18.9648 50.7422 19.5977C50.9531 20.2305 51.2461 20.7344 51.6445 21.1094C52.043 21.4844 52.4883 21.7656 53.0039 21.9414C53.5078 22.1172 54.0938 22.1992 54.75 22.1992C55.418 22.1992 56.0508 22.0703 56.6484 21.7891C57.2461 21.5078 57.7734 21.1094 58.2305 20.5703H58.2773V22H61.418V10.2812H58.2773Z" fill="white"/>
</svg>
