<svg width="162" height="60" viewBox="0 0 162 60" fill="none" xmlns="http://www.w3.org/2000/svg">
<path d="M51.8672 22.1758C53.2969 22.1758 54.5859 21.8828 55.7461 21.2969C56.8945 20.7109 57.8672 19.9258 58.6523 18.9414L56.1797 16.8203C55.6523 17.4766 55.0195 18.0039 54.2695 18.3906C53.5195 18.7891 52.7109 18.9766 51.8672 18.9766C50.8594 18.9766 49.9688 18.7539 49.1836 18.2852C48.3984 17.8164 47.7891 17.1719 47.3555 16.3398C46.9219 15.5195 46.7109 14.582 46.7109 13.5273C46.7109 13.0469 46.7461 12.5898 46.8398 12.1445C46.9219 11.7109 47.0508 11.3125 47.2148 10.9375C47.3789 10.5625 47.5664 10.2227 47.8008 9.90625C48.0352 9.60156 48.293 9.32031 48.5859 9.08594C48.8789 8.85156 49.1953 8.64062 49.5469 8.47656C49.8867 8.3125 50.25 8.18359 50.6484 8.08984C51.0352 8.00781 51.4453 7.96094 51.8672 7.96094C52.7109 7.96094 53.5078 8.17188 54.2578 8.57031C55.0078 8.96875 55.6406 9.49609 56.1797 10.1289L58.6523 8.01953C58.043 7.28125 57.3516 6.66016 56.5781 6.15625C55.8047 5.66406 55.0195 5.30078 54.2461 5.07812C53.4609 4.86719 52.6641 4.75 51.8672 4.75C50.7656 4.75 49.7578 4.90234 48.8203 5.19531C47.8828 5.5 47.0742 5.91016 46.3945 6.44922C45.7148 6.98828 45.1289 7.60938 44.6367 8.33594C44.1445 9.0625 43.7812 9.87109 43.5469 10.75C43.3008 11.6289 43.1836 12.5547 43.1836 13.5273C43.1836 14.6289 43.3359 15.6484 43.6406 16.5859C43.9453 17.5234 44.3555 18.332 44.8945 19.0117C45.4336 19.6914 46.0664 20.2656 46.793 20.7461C47.5195 21.2383 48.3047 21.5898 49.1719 21.8242C50.0273 22.0586 50.9297 22.1758 51.8672 22.1758ZM69.2461 10.2812V11.6055H69.1992C68.3203 10.5977 67.1719 10.082 65.7422 10.082C64.9688 10.082 64.2305 10.2344 63.5508 10.5391C62.8711 10.8438 62.2852 11.2656 61.793 11.793C61.3008 12.332 60.9258 12.9766 60.6445 13.7266C60.3633 14.4883 60.2227 15.3086 60.2227 16.1758C60.2227 17.0664 60.3633 17.8984 60.6445 18.6484C60.9258 19.3984 61.3125 20.043 61.8047 20.5586C62.2969 21.0742 62.8945 21.4844 63.5859 21.7656C64.2773 22.0586 65.0273 22.1992 65.8359 22.1992C67.3359 22.1992 68.4961 21.6602 69.3398 20.582H69.3984V22H72.3867V10.2812H69.2461ZM66.4102 19.3867C65.5195 19.3867 64.8047 19.0938 64.2422 18.4961C63.6797 17.9102 63.4102 17.1367 63.4102 16.1875C63.4102 15.2031 63.6914 14.418 64.2656 13.8086C64.8398 13.2109 65.5547 12.9062 66.4219 12.9062C67.2656 12.9062 67.9688 13.2227 68.5312 13.8438C69.0938 14.4766 69.375 15.25 69.375 16.1875C69.375 17.1367 69.082 17.9102 68.5195 18.4961C67.9453 19.0938 67.2422 19.3867 66.4102 19.3867ZM75.6094 22H78.75V4.32812H75.6094V22ZM82.2188 22H85.3594V4.32812H82.2188V22ZM92.4727 22.1992C93.9492 22.1992 95.0742 21.8711 95.8477 21.1914C96.6211 20.5234 97.0195 19.6445 97.0195 18.5547C97.0195 18.2734 96.9961 18.0039 96.9492 17.7695C96.7969 16.9961 96.3398 16.3633 95.5898 15.8945C95.1445 15.6133 94.2773 15.2383 92.9883 14.7578C92.3672 14.5234 91.9219 14.3125 91.6406 14.125C91.3594 13.9375 91.2305 13.7266 91.2305 13.4922C91.2305 13.2109 91.3477 13 91.582 12.8477C91.8164 12.6953 92.0742 12.6133 92.3789 12.6133C92.8242 12.6133 93.293 12.7188 93.7852 12.9297C94.2773 13.1406 94.7344 13.4453 95.1797 13.8555L96.7031 11.5586C96.0352 11.043 95.3555 10.668 94.6758 10.4336C93.9844 10.1992 93.2344 10.082 92.4141 10.082C91.6172 10.082 90.8906 10.2344 90.2578 10.5156C89.625 10.8086 89.1211 11.2188 88.7461 11.7578C88.3711 12.2969 88.1953 12.9062 88.1953 13.5977C88.1953 13.9727 88.2305 14.3125 88.3242 14.6172C88.4062 14.9336 88.5352 15.2148 88.6992 15.4492C88.8633 15.6953 89.0508 15.918 89.2617 16.1055C89.4727 16.3047 89.7188 16.4805 90.0117 16.6445C90.293 16.8086 90.5742 16.9375 90.8555 17.0547C91.1367 17.1719 91.4531 17.2891 91.8047 17.4062C92.3555 17.5938 92.7656 17.7344 93.0469 17.8516C93.3281 17.9688 93.5391 18.0977 93.7031 18.2383C93.8555 18.3789 93.9375 18.5312 93.9375 18.707C93.9375 19 93.8086 19.2344 93.5508 19.4102C93.293 19.5977 92.9414 19.6797 92.4961 19.6797C91.3008 19.6797 90.2227 19.2227 89.25 18.3086L87.7266 20.4766C89.0273 21.625 90.6094 22.1992 92.4727 22.1992Z" fill="white"/>
<path d="M49.6406 40.1758C48.8438 40.1758 48.1289 40.375 47.4727 40.75C46.8164 41.125 46.2773 41.6641 45.8438 42.3555H45.7969V40.3164H43.8516V52H45.7969V46.3633C45.7969 45.5898 45.9375 44.8867 46.2188 44.2773C46.5 43.668 46.9102 43.1875 47.4492 42.8359C47.9883 42.4844 48.6211 42.3086 49.3477 42.3086C49.582 42.3086 49.8398 42.3203 50.1211 42.3438V40.1992C50.0273 40.1875 49.8633 40.1758 49.6406 40.1758ZM62.332 45.9766C62.332 44.875 62.0977 43.8789 61.6523 43C61.207 42.1211 60.5625 41.4297 59.7422 40.9258C58.9102 40.4336 57.9609 40.1758 56.8945 40.1758C56.1094 40.1758 55.3711 40.3281 54.6914 40.6211C54 40.9258 53.4023 41.3359 52.9102 41.8516C52.418 42.3672 52.0195 43 51.7383 43.75C51.4453 44.5 51.3047 45.2969 51.3047 46.1641C51.3047 47.043 51.4453 47.8516 51.75 48.6016C52.043 49.3516 52.4531 49.9844 52.9688 50.5C53.4844 51.0156 54.0938 51.4258 54.8086 51.7188C55.5234 52.0117 56.2969 52.1523 57.1172 52.1523C58.1367 52.1523 59.0508 51.9648 59.8477 51.5664C60.6445 51.168 61.3125 50.6289 61.8398 49.9492L60.4805 48.7891C60.082 49.2695 59.6133 49.6562 59.0625 49.9375C58.5 50.2188 57.8789 50.3594 57.1875 50.3594C56.1328 50.3594 55.2539 50.043 54.5508 49.3867C53.8359 48.7305 53.4141 47.8633 53.2969 46.7734H62.2734C62.3086 46.5391 62.332 46.2812 62.332 45.9766ZM57 41.9688C57.9141 41.9688 58.6641 42.2617 59.2617 42.8359C59.8594 43.4219 60.2344 44.1953 60.3984 45.1562H53.3438C53.5195 44.1836 53.9414 43.4102 54.6094 42.8359C55.2773 42.2617 56.0742 41.9688 57 41.9688ZM74.2734 34.3281V42.0508H74.2383C73.9102 41.6523 73.5469 41.3008 73.125 41.0195C72.7031 40.7383 72.2578 40.5273 71.7773 40.3867C71.2852 40.2461 70.7812 40.1758 70.2656 40.1758C69.4453 40.1758 68.6836 40.3398 67.9805 40.6445C67.2656 40.9492 66.6562 41.3711 66.1641 41.9102C65.6602 42.4492 65.2617 43.082 64.9805 43.832C64.6875 44.582 64.5469 45.3906 64.5469 46.2344C64.5469 47.1133 64.6875 47.9219 64.9922 48.6602C65.2852 49.4102 65.6836 50.0312 66.1992 50.5352C66.7148 51.0508 67.3242 51.4492 68.0273 51.7305C68.7305 52.0117 69.4805 52.1523 70.2773 52.1523C70.8398 52.1523 71.3672 52.082 71.8711 51.918C72.375 51.7539 72.832 51.5312 73.2422 51.2266C73.6406 50.9336 74.0039 50.5703 74.3203 50.1484H74.3555V52H76.2188V34.3281H74.2734ZM70.4648 50.3711C69.293 50.3711 68.3438 49.9844 67.6172 49.2109C66.8906 48.4375 66.5273 47.4414 66.5273 46.2461C66.5273 44.9688 66.9023 43.9375 67.6523 43.1406C68.4023 42.3555 69.3516 41.957 70.4883 41.957C71.0273 41.957 71.5312 42.0742 72.0117 42.2969C72.4805 42.5195 72.8906 42.8242 73.2305 43.1992C73.5703 43.5859 73.8398 44.043 74.0391 44.5703C74.2383 45.0977 74.3438 45.6602 74.3438 46.2461C74.3438 46.8555 74.2383 47.418 74.0273 47.9336C73.8164 48.4492 73.5234 48.8945 73.1719 49.2461C72.8203 49.5977 72.3984 49.8789 71.9297 50.0781C71.4609 50.2773 70.9688 50.3711 70.4648 50.3711ZM81.1055 38.1484C81.4805 38.1484 81.8086 38.0195 82.0781 37.75C82.3477 37.4922 82.4883 37.1641 82.4883 36.7891C82.4883 36.543 82.418 36.3086 82.3008 36.0977C82.1719 35.8867 82.0078 35.7227 81.7969 35.6055C81.5859 35.4883 81.3516 35.418 81.1055 35.418C80.707 35.418 80.3789 35.5586 80.1211 35.8164C79.8516 36.0859 79.7227 36.4141 79.7227 36.7891C79.7227 37.1641 79.8516 37.4922 80.1211 37.75C80.3789 38.0195 80.707 38.1484 81.1055 38.1484ZM80.1211 52H82.0547V40.3164H80.1211V52ZM91.7344 40.1758C90.9375 40.1758 90.2227 40.375 89.5664 40.75C88.9102 41.125 88.3711 41.6641 87.9375 42.3555H87.8906V40.3164H85.9453V52H87.8906V46.3633C87.8906 45.5898 88.0312 44.8867 88.3125 44.2773C88.5938 43.668 89.0039 43.1875 89.543 42.8359C90.082 42.4844 90.7148 42.3086 91.4414 42.3086C91.6758 42.3086 91.9336 42.3203 92.2148 42.3438V40.1992C92.1211 40.1875 91.957 40.1758 91.7344 40.1758ZM104.426 45.9766C104.426 44.875 104.191 43.8789 103.746 43C103.301 42.1211 102.656 41.4297 101.836 40.9258C101.004 40.4336 100.055 40.1758 98.9883 40.1758C98.2031 40.1758 97.4648 40.3281 96.7852 40.6211C96.0938 40.9258 95.4961 41.3359 95.0039 41.8516C94.5117 42.3672 94.1133 43 93.832 43.75C93.5391 44.5 93.3984 45.2969 93.3984 46.1641C93.3984 47.043 93.5391 47.8516 93.8438 48.6016C94.1367 49.3516 94.5469 49.9844 95.0625 50.5C95.5781 51.0156 96.1875 51.4258 96.9023 51.7188C97.6172 52.0117 98.3906 52.1523 99.2109 52.1523C100.23 52.1523 101.145 51.9648 101.941 51.5664C102.738 51.168 103.406 50.6289 103.934 49.9492L102.574 48.7891C102.176 49.2695 101.707 49.6562 101.156 49.9375C100.594 50.2188 99.9727 50.3594 99.2812 50.3594C98.2266 50.3594 97.3477 50.043 96.6445 49.3867C95.9297 48.7305 95.5078 47.8633 95.3906 46.7734H104.367C104.402 46.5391 104.426 46.2812 104.426 45.9766ZM99.0938 41.9688C100.008 41.9688 100.758 42.2617 101.355 42.8359C101.953 43.4219 102.328 44.1953 102.492 45.1562H95.4375C95.6133 44.1836 96.0352 43.4102 96.7031 42.8359C97.3711 42.2617 98.168 41.9688 99.0938 41.9688ZM112.43 52.1523C113.426 52.1523 114.352 51.9766 115.195 51.6016C116.039 51.2383 116.73 50.7578 117.258 50.1719L115.91 48.9648C115.535 49.3867 115.055 49.7266 114.469 49.9844C113.883 50.2422 113.25 50.3594 112.594 50.3594C111.422 50.3594 110.461 49.9727 109.723 49.1992C108.984 48.4258 108.621 47.4062 108.621 46.1641C108.621 44.9219 108.984 43.9141 109.723 43.1289C110.461 42.3555 111.422 41.957 112.594 41.957C113.262 41.957 113.883 42.0977 114.445 42.3555C115.008 42.6133 115.488 42.9766 115.863 43.4219L117.211 42.25C116.648 41.582 115.945 41.0664 115.102 40.7031C114.258 40.3516 113.391 40.1641 112.5 40.1641C111.363 40.1641 110.355 40.4219 109.465 40.9258C108.574 41.4414 107.883 42.1445 107.391 43.0586C106.898 43.9727 106.652 45.0156 106.652 46.1758C106.652 47.3477 106.898 48.3789 107.391 49.293C107.883 50.207 108.562 50.9102 109.441 51.4023C110.32 51.9062 111.316 52.1523 112.43 52.1523ZM123.211 52.1523C123.633 52.1523 124.043 52.1172 124.418 52.0469C124.793 51.9766 125.086 51.8828 125.32 51.7891C125.543 51.6953 125.777 51.5664 126.035 51.4258L125.52 49.7266C124.816 50.125 124.16 50.3242 123.551 50.3242C123.012 50.3242 122.648 50.1602 122.438 49.832C122.227 49.5039 122.121 48.9648 122.121 48.2266V42.0039H125.988V40.3164H122.121V36.1094L120.176 36.3203V40.3164H118.688V42.0039H120.176V48.5195C120.176 50.9453 121.184 52.1523 123.211 52.1523Z" fill="#E56717"/>
<path d="M3 48.0784V5.92157C3 3.75575 4.79086 2 7 2H26.5C28.7091 2 30.5 3.75575 30.5 5.92157V48.0784C30.5 50.2442 28.7091 52 26.5 52H7C4.79086 52 3 50.2442 3 48.0784Z" fill="#E56717"/>
<mask id="mask0_6_20" style="mask-type:alpha" maskUnits="userSpaceOnUse" x="3" y="2" width="28" height="50">
<path d="M3 48.0784V5.92157C3 3.75575 4.79086 2 7 2H26.5C28.7091 2 30.5 3.75575 30.5 5.92157V48.0784C30.5 50.2442 28.7091 52 26.5 52H7C4.79086 52 3 50.2442 3 48.0784Z" fill="black"/>
</mask>
<g mask="url(#mask0_6_20)">
<path d="M5 43.6667V10.3333C5 8.16752 6.79086 6.41177 9 6.41177H24C26.2091 6.41177 28 8.16752 28 10.3333V43.6667C28 45.8325 26.2091 47.5882 24 47.5882H9C6.79086 47.5882 5 45.8325 5 43.6667Z" fill="white"/>
<path d="M11.5 3.96078H21.5" stroke="white" stroke-linecap="round" stroke-linejoin="round"/>
<path d="M14 49.549H20" stroke="white" stroke-width="2" stroke-linecap="round" stroke-linejoin="round"/>
<path d="M32.7071 15.9286C33.0976 15.5457 33.0976 14.9249 32.7071 14.5421L26.3431 8.30289C25.9526 7.92003 25.3195 7.92003 24.9289 8.30289C24.5384 8.68577 24.5384 9.30651 24.9289 9.68938L30.5858 15.2353L24.9289 20.7813C24.5384 21.1641 24.5384 21.7848 24.9289 22.1678C25.3195 22.5506 25.9526 22.5506 26.3431 22.1678L32.7071 15.9286ZM28 16.2157H32V14.2549H28V16.2157Z" fill="#E56717"/>
<path d="M23.7071 27.6932C24.0976 27.3104 24.0976 26.6896 23.7071 26.3067L17.3431 20.0675C16.9526 19.6847 16.3195 19.6847 15.9289 20.0675C15.5384 20.4505 15.5384 21.0712 15.9289 21.454L21.5858 27L15.9289 32.546C15.5384 32.9288 15.5384 33.5495 15.9289 33.9324C16.3195 34.3153 16.9526 34.3153 17.3431 33.9324L23.7071 27.6932ZM21.5 27.9804H23V26.0196H21.5V27.9804Z" fill="#E56717"/>
<path d="M16.7071 39.4579C17.0976 39.0751 17.0976 38.4543 16.7071 38.0715L10.3431 31.8322C9.95263 31.4494 9.31947 31.4494 8.92894 31.8322C8.53842 32.2152 8.53842 32.8359 8.92894 33.2187L14.5858 38.7647L8.92894 44.3107C8.53842 44.6935 8.53842 45.3142 8.92894 45.6971C9.31947 46.08 9.95263 46.08 10.3431 45.6971L16.7071 39.4579ZM14 39.7451H16V37.7843H14V39.7451Z" fill="#E56717"/>
<path d="M10 40.7255H16" stroke="white" stroke-width="2" stroke-linecap="round"/>
<path d="M16 29.9412H22" stroke="white" stroke-width="2" stroke-linecap="round"/>
<path d="M23 17.1961H31" stroke="white" stroke-width="2"/>
<path d="M1 38.7647H14" stroke="#E56717" stroke-width="3" stroke-linecap="round"/>
<path d="M10 27H23" stroke="#E56717" stroke-width="3" stroke-linecap="round"/>
<path d="M19 15.2353H32" stroke="#E56717" stroke-width="3" stroke-linecap="round"/>
</g>
</svg>
